{"Protocol":0,"Id":"ba5a8296deab86b3ad8fd53991f73b5a","Path":"/data/media/movies/Toy Story (1995)/Toy Story (1995) Bluray-1080p Proper.mp4","EncoderPath":null,"EncoderProtocol":null,"Type":0,"Container":"mov,mp4,m4a,3gp,3g2,mj2","Size":1355450250,"Name":"Toy Story (1995) Bluray-1080p Proper","IsRemote":false,"ETag":"885c8a4b0a72f7b1ad2a09b413a911e9","RunTimeTicks":48634550000,"ReadAtNativeFramerate":false,"IgnoreDts":false,"IgnoreIndex":false,"GenPtsInput":false,"SupportsTranscoding":true,"SupportsDirectStream":true,"SupportsDirectPlay":true,"IsInfiniteStream":false,"UseMostCompatibleTranscodingProfile":false,"RequiresOpening":false,"OpenToken":null,"RequiresClosing":false,"LiveStreamId":null,"BufferMs":null,"RequiresLooping":false,"SupportsProbing":true,"VideoType":0,"IsoType":null,"Video3DFormat":null,"MediaStreams":[{"Codec":"hevc","CodecTag":"hev1","Language":"und","ColorRange":null,"ColorSpace":null,"ColorTransfer":null,"ColorPrimaries":null,"DvVersionMajor":null,"DvVersionMinor":null,"DvProfile":null,"DvLevel":null,"RpuPresentFlag":null,"ElPresentFlag":null,"BlPresentFlag":null,"DvBlSignalCompatibilityId":null,"Rotation":null,"Comment":null,"TimeBase":"1/24000","CodecTimeBase":null,"Title":null,"Hdr10PlusPresentFlag":null,"VideoRange":1,"VideoRangeType":1,"VideoDoViTitle":null,"AudioSpatialFormat":0,"LocalizedUndefined":null,"LocalizedDefault":null,"LocalizedForced":null,"LocalizedExternal":null,"LocalizedHearingImpaired":null,"DisplayTitle":"1080p HEVC SDR","NalLengthSize":null,"IsInterlaced":false,"IsAVC":false,"ChannelLayout":null,"BitRate":1998688,"BitDepth":10,"RefFrames":1,"PacketLength":null,"Channels":null,"SampleRate":null,"IsDefault":true,"IsForced":false,"IsHearingImpaired":false,"Height":1080,"Width":1920,"AverageFrameRate":23.976025,"RealFrameRate":23.976025,"ReferenceFrameRate":23.976025,"Profile":"Main 10","Type":1,"AspectRatio":"16:9","Index":0,"Score":null,"IsExternal":false,"DeliveryMethod":null,"DeliveryUrl":null,"IsExternalUrl":null,"IsTextSubtitleStream":false,"SupportsExternalStream":false,"Path":null,"PixelFormat":"yuv420p10le","Level":120,"IsAnamorphic":false},{"Codec":"aac","CodecTag":"mp4a","Language":"eng","ColorRange":null,"ColorSpace":null,"ColorTransfer":null,"ColorPrimaries":null,"DvVersionMajor":null,"DvVersionMinor":null,"DvProfile":null,"DvLevel":null,"RpuPresentFlag":null,"ElPresentFlag":null,"BlPresentFlag":null,"DvBlSignalCompatibilityId":null,"Rotation":null,"Comment":null,"TimeBase":"1/48000","CodecTimeBase":null,"Title":null,"Hdr10PlusPresentFlag":null,"VideoRange":0,"VideoRangeType":0,"VideoDoViTitle":null,"AudioSpatialFormat":0,"LocalizedUndefined":null,"LocalizedDefault":"Default","LocalizedForced":null,"LocalizedExternal":"External","LocalizedHearingImpaired":null,"DisplayTitle":"English - AAC - 5.1 - Default","NalLengthSize":null,"IsInterlaced":false,"IsAVC":false,"ChannelLayout":"5.1","BitRate":224001,"BitDepth":null,"RefFrames":null,"PacketLength":null,"Channels":6,"SampleRate":48000,"IsDefault":true,"IsForced":false,"IsHearingImpaired":false,"Height":null,"Width":null,"AverageFrameRate":null,"RealFrameRate":null,"ReferenceFrameRate":null,"Profile":"LC","Type":0,"AspectRatio":null,"Index":1,"Score":null,"IsExternal":false,"DeliveryMethod":null,"DeliveryUrl":null,"IsExternalUrl":null,"IsTextSubtitleStream":false,"SupportsExternalStream":false,"Path":null,"PixelFormat":null,"Level":0,"IsAnamorphic":null}],"MediaAttachments":[],"Formats":[],"Bitrate":2229608,"FallbackMaxStreamingBitrate":null,"Timestamp":null,"RequiredHttpHeaders":{},"TranscodingUrl":null,"TranscodingSubProtocol":0,"TranscodingContainer":null,"AnalyzeDurationMs":null,"DefaultAudioStreamIndex":null,"DefaultSubtitleStreamIndex":null,"HasSegments":false}

/usr/lib/jellyfin-ffmpeg/ffmpeg -analyzeduration 200M -probesize 1G -ss 00:25:27.000 -noaccurate_seek  -i file:"/data/media/movies/Toy Story (1995)/Toy Story (1995) Bluray-1080p Proper.mp4" -map_metadata -1 -map_chapters -1 -threads 0 -map 0:0 -map 0:1 -map -0:s -codec:v:0 libx264 -preset veryfast -crf 23 -maxrate 8327867 -bufsize 16655734 -profile:v:0 high -level 51 -x264opts:0 subme=0:me_range=16:rc_lookahead=10:me=hex:open_gop=0 -force_key_frames:0 "expr:gte(t,n_forced*3)" -sc_threshold:v:0 0 -vf "setparams=color_primaries=bt709:color_trc=bt709:colorspace=bt709,scale=trunc(min(max(iw\,ih*a)\,min(1920\,1080*a))/2)*2:trunc(min(max(iw/a\,ih)\,min(1920/a\,1080))/2)*2,format=yuv420p" -codec:a:0 copy -copyts -avoid_negative_ts disabled -max_muxing_queue_size 2048 -f hls -max_delay 5000000 -hls_time 3 -hls_segment_type fmp4 -hls_fmp4_init_filename "ee36f05a86d6adf67033ce6a6b847139-1.mp4" -start_number 509 -hls_segment_filename "/cache/transcodes/ee36f05a86d6adf67033ce6a6b847139%d.mp4" -hls_playlist_type vod -hls_list_size 0 -hls_segment_options movflags=+frag_discont -y "/cache/transcodes/ee36f05a86d6adf67033ce6a6b847139.m3u8"


ffmpeg version 7.1.3-Jellyfin Copyright (c) 2000-2025 the FFmpeg developers
  built with gcc 14 (Debian 14.2.0-19)
  configuration: --prefix=/usr/lib/jellyfin-ffmpeg --target-os=linux --extra-version=Jellyfin --disable-doc --disable-ffplay --disable-static --disable-libxcb --disable-sdl2 --disable-xlib --enable-lto=auto --enable-gpl --enable-version3 --enable-shared --enable-gmp --enable-gnutls --enable-chromaprint --enable-opencl --enable-libdrm --enable-libxml2 --enable-libass --enable-libfreetype --enable-libfribidi --enable-libfontconfig --enable-libharfbuzz --enable-libbluray --enable-libmp3lame --enable-libopus --enable-libtheora --enable-libvorbis --enable-libopenmpt --enable-libdav1d --enable-libsvtav1 --enable-libwebp --enable-libvpx --enable-libx264 --enable-libx265 --enable-libzvbi --enable-libzimg --enable-libfdk-aac --arch=amd64 --enable-libshaderc --enable-libplacebo --enable-vulkan --enable-vaapi --enable-amf --enable-libvpl --enable-ffnvcodec --enable-cuda --enable-cuda-llvm --enable-cuvid --enable-nvdec --enable-nvenc
  libavutil      59. 39.100 / 59. 39.100
  libavcodec     61. 19.101 / 61. 19.101
  libavformat    61.  7.100 / 61.  7.100
  libavdevice    61.  3.100 / 61.  3.100
  libavfilter    10.  4.100 / 10.  4.100
  libswscale      8.  3.100 /  8.  3.100
  libswresample   5.  3.100 /  5.  3.100
  libpostproc    58.  3.100 / 58.  3.100
Input #0, mov,mp4,m4a,3gp,3g2,mj2, from 'file:/data/media/movies/Toy Story (1995)/Toy Story (1995) Bluray-1080p Proper.mp4':
  Metadata:
    major_brand     : isom
    minor_version   : 512
    compatible_brands: isomiso2mp41
    creation_time   : 2020-07-26T13:12:07.000000Z
    title           : Toy.Story.1995.PROPER.1080p.BluRay.x265-RARBG
    encoder         : Lavf58.20.100
    comment         : Toy.Story.1995.PROPER.1080p.BluRay.x265-RARBG
  Duration: 01:21:03.46, start: 0.000000, bitrate: 2229 kb/s
  Stream #0:0[0x1](und): Video: hevc (Main 10) (hev1 / 0x31766568), yuv420p10le(tv), 1920x1080 [SAR 1:1 DAR 16:9], 1998 kb/s, 23.98 fps, 23.98 tbr, 24k tbn (default)
      Metadata:
        creation_time   : 2020-07-26T13:12:07.000000Z
        handler_name    : VideoHandler
        vendor_id       : [0][0][0][0]
  Stream #0:1[0x2](eng): Audio: aac (LC) (mp4a / 0x6134706D), 48000 Hz, 5.1, fltp, 224 kb/s (default)
      Metadata:
        creation_time   : 2020-07-26T13:12:07.000000Z
        handler_name    : SoundHandler
        vendor_id       : [0][0][0][0]
Stream mapping:
  Stream #0:0 -> #0:0 (hevc (native) -> h264 (libx264))
  Stream #0:1 -> #0:1 (copy)
Press [q] to stop, [?] for help
[libx264 @ 0x7ab5becdde00] using SAR=1/1
[libx264 @ 0x7ab5becdde00] using cpu capabilities: MMX2 SSE2Fast SSSE3 SSE4.2 AVX FMA3 BMI2 AVX2
[libx264 @ 0x7ab5becdde00] profile High, level 5.1, 4:2:0, 8-bit
[libx264 @ 0x7ab5becdde00] 264 - core 164 r3108 31e19f9 - H.264/MPEG-4 AVC codec - Copyleft 2003-2023 - http://www.videolan.org/x264.html - options: cabac=1 ref=1 deblock=1:0:0 analyse=0x3:0x113 me=hex subme=0 psy=1 psy_rd=1.00:0.00 mixed_ref=0 me_range=16 chroma_me=1 trellis=0 8x8dct=1 cqm=0 deadzone=21,11 fast_pskip=1 chroma_qp_offset=0 threads=6 lookahead_threads=1 sliced_threads=0 nr=0 decimate=1 interlaced=0 bluray_compat=0 constrained_intra=0 bframes=3 b_pyramid=2 b_adapt=1 b_bias=0 direct=1 weightb=1 open_gop=0 weightp=1 keyint=250 keyint_min=23 scenecut=0 intra_refresh=0 rc_lookahead=10 rc=crf mbtree=1 crf=23.0 qcomp=0.60 qpmin=0 qpmax=69 qpstep=4 vbv_maxrate=8327 vbv_bufsize=16655 crf_max=0.0 nal_hrd=none filler=0 ip_ratio=1.40 aq=1:1.00
[hls @ 0x7ab5bec98c80] Opening '/cache/transcodes/ee36f05a86d6adf67033ce6a6b847139-1.mp4' for writing
Output #0, hls, to '/cache/transcodes/ee36f05a86d6adf67033ce6a6b847139.m3u8':
  Metadata:
    encoder         : Lavf61.7.100
  Stream #0:0: Video: h264, yuv420p(tv, bt709, progressive), 1920x1080 [SAR 1:1 DAR 16:9], q=2-31, 23.98 fps, 24k tbn (default)
      Metadata:
        encoder         : Lavc61.19.101 libx264
      Side data:
        cpb: bitrate max/min/avg: 8327000/0/0 buffer size: 16655000 vbv_delay: N/A
  Stream #0:1: Audio: aac (LC) (mp4a / 0x6134706D), 48000 Hz, 5.1, fltp, 224 kb/s (default)
frame=   20 fps=0.0 q=28.0 size=N/A time=00:00:00.00 bitrate=N/A speed=   0x    
frame=   65 fps= 65 q=28.0 size=N/A time=00:00:01.87 bitrate=N/A speed=1.87x    
[hls @ 0x7ab5bec98c80] Opening '/cache/transcodes/ee36f05a86d6adf67033ce6a6b847139509.mp4' for writing
frame=  128 fps= 85 q=28.0 size=N/A time=00:00:04.50 bitrate=N/A speed=   3x    
[hls @ 0x7ab5bec98c80] Opening '/cache/transcodes/ee36f05a86d6adf67033ce6a6b847139510.mp4' for writing
frame=  163 fps= 81 q=28.0 size=N/A time=00:00:05.96 bitrate=N/A speed=2.98x    
frame=  207 fps= 83 q=28.0 size=N/A time=00:00:07.79 bitrate=N/A speed=3.12x    
[hls @ 0x7ab5bec98c80] Opening '/cache/transcodes/ee36f05a86d6adf67033ce6a6b847139511.mp4' for writing
frame=  246 fps= 82 q=28.0 size=N/A time=00:00:09.42 bitrate=N/A speed=3.14x    
[hls @ 0x7ab5bec98c80] Opening '/cache/transcodes/ee36f05a86d6adf67033ce6a6b847139512.mp4' for writing
frame=  293 fps= 84 q=28.0 size=N/A time=00:00:11.38 bitrate=N/A speed=3.25x    
frame=  340 fps= 85 q=28.0 size=N/A time=00:00:13.34 bitrate=N/A speed=3.33x    
[hls @ 0x7ab5bec98c80] Opening '/cache/transcodes/ee36f05a86d6adf67033ce6a6b847139513.mp4' for writing
frame=  385 fps= 85 q=28.0 size=N/A time=00:00:15.22 bitrate=N/A speed=3.38x    
frame=  423 fps= 84 q=28.0 size=N/A time=00:00:16.80 bitrate=N/A speed=3.36x    
[hls @ 0x7ab5bec98c80] Opening '/cache/transcodes/ee36f05a86d6adf67033ce6a6b847139514.mp4' for writing
frame=  491 fps= 89 q=28.0 size=N/A time=00:00:19.64 bitrate=N/A speed=3.56x    
[hls @ 0x7ab5bec98c80] Opening '/cache/transcodes/ee36f05a86d6adf67033ce6a6b847139515.mp4' for writing
frame=  564 fps= 94 q=28.0 size=N/A time=00:00:22.68 bitrate=N/A speed=3.77x    
[hls @ 0x7ab5bec98c80] Opening '/cache/transcodes/ee36f05a86d6adf67033ce6a6b847139516.mp4' for writing
frame=  627 fps= 96 q=28.0 size=N/A time=00:00:25.31 bitrate=N/A speed=3.89x    
[hls @ 0x7ab5bec98c80] Opening '/cache/transcodes/ee36f05a86d6adf67033ce6a6b847139517.mp4' for writing
frame=  682 fps= 97 q=28.0 size=N/A time=00:00:27.61 bitrate=N/A speed=3.94x    
[hls @ 0x7ab5bec98c80] Opening '/cache/transcodes/ee36f05a86d6adf67033ce6a6b847139518.mp4' for writing
frame=  734 fps= 98 q=28.0 size=N/A time=00:00:29.77 bitrate=N/A speed=3.96x    
frame=  792 fps= 99 q=28.0 size=N/A time=00:00:32.19 bitrate=N/A speed=4.02x    
[hls @ 0x7ab5bec98c80] Opening '/cache/transcodes/ee36f05a86d6adf67033ce6a6b847139519.mp4' for writing
frame=  853 fps=100 q=28.0 size=N/A time=00:00:34.74 bitrate=N/A speed=4.08x    
[hls @ 0x7ab5bec98c80] Opening '/cache/transcodes/ee36f05a86d6adf67033ce6a6b847139520.mp4' for writing
frame=  912 fps=101 q=28.0 size=N/A time=00:00:37.20 bitrate=N/A speed=4.13x    
[hls @ 0x7ab5bec98c80] Opening '/cache/transcodes/ee36f05a86d6adf67033ce6a6b847139521.mp4' for writing
frame=  962 fps=101 q=28.0 size=N/A time=00:00:39.28 bitrate=N/A speed=4.13x    
[hls @ 0x7ab5bec98c80] Opening '/cache/transcodes/ee36f05a86d6adf67033ce6a6b847139522.mp4' for writing
frame= 1015 fps=101 q=28.0 size=N/A time=00:00:41.49 bitrate=N/A speed=4.14x    
frame= 1061 fps=101 q=28.0 size=N/A time=00:00:43.41 bitrate=N/A speed=4.13x    
[hls @ 0x7ab5bec98c80] Opening '/cache/transcodes/ee36f05a86d6adf67033ce6a6b847139523.mp4' for writing
frame= 1107 fps=100 q=28.0 size=N/A time=00:00:45.33 bitrate=N/A speed=4.11x    
[hls @ 0x7ab5bec98c80] Opening '/cache/transcodes/ee36f05a86d6adf67033ce6a6b847139524.mp4' for writing
frame= 1161 fps=101 q=28.0 size=N/A time=00:00:47.58 bitrate=N/A speed=4.13x    
frame= 1214 fps=101 q=28.0 size=N/A time=00:00:49.79 bitrate=N/A speed=4.14x    
[hls @ 0x7ab5bec98c80] Opening '/cache/transcodes/ee36f05a86d6adf67033ce6a6b847139525.mp4' for writing
frame= 1269 fps=101 q=28.0 size=N/A time=00:00:52.09 bitrate=N/A speed=4.16x    
[hls @ 0x7ab5bec98c80] Opening '/cache/transcodes/ee36f05a86d6adf67033ce6a6b847139526.mp4' for writing
frame= 1321 fps=101 q=28.0 size=N/A time=00:00:54.26 bitrate=N/A speed=4.17x    
[hls @ 0x7ab5bec98c80] Opening '/cache/transcodes/ee36f05a86d6adf67033ce6a6b847139527.mp4' for writing
frame= 1369 fps=101 q=28.0 size=N/A time=00:00:56.26 bitrate=N/A speed=4.16x    
frame= 1419 fps=101 q=28.0 size=N/A time=00:00:58.34 bitrate=N/A speed=4.16x    
[hls @ 0x7ab5bec98c80] Opening '/cache/transcodes/ee36f05a86d6adf67033ce6a6b847139528.mp4' for writing
frame= 1471 fps=101 q=28.0 size=N/A time=00:01:00.51 bitrate=N/A speed=4.17x    
[hls @ 0x7ab5bec98c80] Opening '/cache/transcodes/ee36f05a86d6adf67033ce6a6b847139529.mp4' for writing
frame= 1527 fps=102 q=28.0 size=N/A time=00:01:02.85 bitrate=N/A speed=4.18x    
frame= 1583 fps=102 q=28.0 size=N/A time=00:01:05.19 bitrate=N/A speed= 4.2x    
[hls @ 0x7ab5bec98c80] Opening '/cache/transcodes/ee36f05a86d6adf67033ce6a6b847139530.mp4' for writing
frame= 1635 fps=102 q=28.0 size=N/A time=00:01:07.35 bitrate=N/A speed= 4.2x    
[hls @ 0x7ab5bec98c80] Opening '/cache/transcodes/ee36f05a86d6adf67033ce6a6b847139531.mp4' for writing
frame= 1686 fps=102 q=28.0 size=N/A time=00:01:09.48 bitrate=N/A speed= 4.2x    
[hls @ 0x7ab5bec98c80] Opening '/cache/transcodes/ee36f05a86d6adf67033ce6a6b847139532.mp4' for writing
frame= 1732 fps=102 q=28.0 size=N/A time=00:01:11.40 bitrate=N/A speed=4.19x    
frame= 1783 fps=102 q=28.0 size=N/A time=00:01:13.53 bitrate=N/A speed= 4.2x    
[hls @ 0x7ab5bec98c80] Opening '/cache/transcodes/ee36f05a86d6adf67033ce6a6b847139533.mp4' for writing
frame= 1826 fps=101 q=28.0 size=N/A time=00:01:15.32 bitrate=N/A speed=4.18x    
[hls @ 0x7ab5bec98c80] Opening '/cache/transcodes/ee36f05a86d6adf67033ce6a6b847139534.mp4' for writing
frame= 1878 fps=101 q=28.0 size=N/A time=00:01:17.49 bitrate=N/A speed=4.18x    
frame= 1923 fps=101 q=28.0 size=N/A time=00:01:19.37 bitrate=N/A speed=4.17x    
[hls @ 0x7ab5bec98c80] Opening '/cache/transcodes/ee36f05a86d6adf67033ce6a6b847139535.mp4' for writing
frame= 1969 fps=101 q=28.0 size=N/A time=00:01:21.28 bitrate=N/A speed=4.16x    
[hls @ 0x7ab5bec98c80] Opening '/cache/transcodes/ee36f05a86d6adf67033ce6a6b847139536.mp4' for writing
frame= 2029 fps=101 q=28.0 size=N/A time=00:01:23.79 bitrate=N/A speed=4.18x    
[hls @ 0x7ab5bec98c80] Opening '/cache/transcodes/ee36f05a86d6adf67033ce6a6b847139537.mp4' for writing
frame= 2091 fps=102 q=28.0 size=N/A time=00:01:26.37 bitrate=N/A speed=4.21x    
frame= 2150 fps=102 q=28.0 size=N/A time=00:01:28.83 bitrate=N/A speed=4.22x    
[hls @ 0x7ab5bec98c80] Opening '/cache/transcodes/ee36f05a86d6adf67033ce6a6b847139538.mp4' for writing
frame= 2205 fps=102 q=28.0 size=N/A time=00:01:31.13 bitrate=N/A speed=4.23x    
[hls @ 0x7ab5bec98c80] Opening '/cache/transcodes/ee36f05a86d6adf67033ce6a6b847139539.mp4' for writing
frame= 2250 fps=102 q=28.0 size=N/A time=00:01:33.00 bitrate=N/A speed=4.22x    
frame= 2293 fps=102 q=28.0 size=N/A time=00:01:34.80 bitrate=N/A speed=4.21x    
[hls @ 0x7ab5bec98c80] Opening '/cache/transcodes/ee36f05a86d6adf67033ce6a6b847139540.mp4' for writing
frame= 2352 fps=102 q=28.0 size=N/A time=00:01:37.26 bitrate=N/A speed=4.22x    
[hls @ 0x7ab5bec98c80] Opening '/cache/transcodes/ee36f05a86d6adf67033ce6a6b847139541.mp4' for writing
frame= 2409 fps=102 q=28.0 size=N/A time=00:01:39.64 bitrate=N/A speed=4.23x    
[hls @ 0x7ab5bec98c80] Opening '/cache/transcodes/ee36f05a86d6adf67033ce6a6b847139542.mp4' for writing
frame= 2455 fps=102 q=28.0 size=N/A time=00:01:41.55 bitrate=N/A speed=4.23x    
frame= 2503 fps=102 q=28.0 size=N/A time=00:01:43.56 bitrate=N/A speed=4.22x    
[hls @ 0x7ab5bec98c80] Opening '/cache/transcodes/ee36f05a86d6adf67033ce6a6b847139543.mp4' for writing
frame= 2546 fps=102 q=28.0 size=N/A time=00:01:45.35 bitrate=N/A speed=4.21x    
frame= 2584 fps=101 q=28.0 size=N/A time=00:01:46.94 bitrate=N/A speed=4.19x    
[hls @ 0x7ab5bec98c80] Opening '/cache/transcodes/ee36f05a86d6adf67033ce6a6b847139544.mp4' for writing
frame= 2628 fps=101 q=28.0 size=N/A time=00:01:48.77 bitrate=N/A speed=4.18x    
[hls @ 0x7ab5bec98c80] Opening '/cache/transcodes/ee36f05a86d6adf67033ce6a6b847139545.mp4' for writing
frame= 2678 fps=101 q=28.0 size=N/A time=00:01:50.86 bitrate=N/A speed=4.18x    
frame= 2733 fps=101 q=28.0 size=N/A time=00:01:53.15 bitrate=N/A speed=4.18x    
[hls @ 0x7ab5bec98c80] Opening '/cache/transcodes/ee36f05a86d6adf67033ce6a6b847139546.mp4' for writing
frame= 2786 fps=101 q=28.0 size=N/A time=00:01:55.36 bitrate=N/A speed=4.19x    
[hls @ 0x7ab5bec98c80] Opening '/cache/transcodes/ee36f05a86d6adf67033ce6a6b847139547.mp4' for writing
frame= 2837 fps=101 q=28.0 size=N/A time=00:01:57.49 bitrate=N/A speed=4.19x    
[hls @ 0x7ab5bec98c80] Opening '/cache/transcodes/ee36f05a86d6adf67033ce6a6b847139548.mp4' for writing
frame= 2891 fps=101 q=28.0 size=N/A time=00:01:59.78 bitrate=N/A speed= 4.2x    
frame= 2940 fps=101 q=28.0 size=N/A time=00:02:01.78 bitrate=N/A speed=4.19x    
[hls @ 0x7ab5bec98c80] Opening '/cache/transcodes/ee36f05a86d6adf67033ce6a6b847139549.mp4' for writing
frame= 2975 fps=101 q=28.0 size=N/A time=00:02:03.24 bitrate=N/A speed=4.17x    
frame= 3012 fps=100 q=28.0 size=N/A time=00:02:04.83 bitrate=N/A speed=4.15x    
[hls @ 0x7ab5bec98c80] Opening '/cache/transcodes/ee36f05a86d6adf67033ce6a6b847139550.mp4' for writing
frame= 3052 fps=100 q=28.0 size=N/A time=00:02:06.45 bitrate=N/A speed=4.14x    
[hls @ 0x7ab5bec98c80] Opening '/cache/transcodes/ee36f05a86d6adf67033ce6a6b847139551.mp4' for writing
frame= 3097 fps=100 q=28.0 size=N/A time=00:02:08.33 bitrate=N/A speed=4.13x    
frame= 3129 fps= 99 q=28.0 size=N/A time=00:02:09.67 bitrate=N/A speed=4.11x    
[hls @ 0x7ab5bec98c80] Opening '/cache/transcodes/ee36f05a86d6adf67033ce6a6b847139552.mp4' for writing
frame= 3167 fps= 99 q=28.0 size=N/A time=00:02:11.25 bitrate=N/A speed= 4.1x    
frame= 3201 fps= 98 q=28.0 size=N/A time=00:02:12.67 bitrate=N/A speed=4.08x    
[hls @ 0x7ab5bec98c80] Opening '/cache/transcodes/ee36f05a86d6adf67033ce6a6b847139553.mp4' for writing
frame= 3241 fps= 98 q=28.0 size=N/A time=00:02:14.34 bitrate=N/A speed=4.06x    
frame= 3290 fps= 98 q=28.0 size=N/A time=00:02:16.38 bitrate=N/A speed=4.06x    
[hls @ 0x7ab5bec98c80] Opening '/cache/transcodes/ee36f05a86d6adf67033ce6a6b847139554.mp4' for writing


[q] command received. Exiting.

[hls @ 0x7ab5bec98c80] Opening '/cache/transcodes/ee36f05a86d6adf67033ce6a6b847139555.mp4' for writing
[out#0/hls @ 0x7ab5bec817c0] video:46168KiB audio:3838KiB subtitle:0KiB other streams:0KiB global headers:0KiB muxing overhead: unknown
frame= 3366 fps= 98 q=-1.0 Lsize=N/A time=00:02:19.52 bitrate=N/A speed=4.06x    
[libx264 @ 0x7ab5becdde00] frame I:47    Avg QP:17.47  size:141448
[libx264 @ 0x7ab5becdde00] frame P:1047  Avg QP:20.71  size: 26001
[libx264 @ 0x7ab5becdde00] frame B:2272  Avg QP:24.64  size:  5900
[libx264 @ 0x7ab5becdde00] consecutive B-frames:  6.6%  7.5%  8.2% 77.7%
[libx264 @ 0x7ab5becdde00] mb I  I16..4: 23.3% 40.7% 36.0%
[libx264 @ 0x7ab5becdde00] mb P  I16..4:  9.5% 14.6%  2.7%  P16..4: 12.1%  3.9%  1.6%  0.0%  0.0%    skip:55.6%
[libx264 @ 0x7ab5becdde00] mb B  I16..4:  1.1%  2.4%  0.2%  B16..8:  7.3%  2.3%  0.2%  direct: 3.1%  skip:83.4%  L0:42.3% L1:46.0% BI:11.7%
[libx264 @ 0x7ab5becdde00] 8x8 transform intra:55.1% inter:39.5%
[libx264 @ 0x7ab5becdde00] coded y,uvDC,uvAC intra: 38.7% 64.1% 31.7% inter: 2.7% 7.1% 0.7%
[libx264 @ 0x7ab5becdde00] i16 v,h,dc,p: 58% 19%  9% 14%
[libx264 @ 0x7ab5becdde00] i8 v,h,dc,ddl,ddr,vr,hd,vl,hu: 19% 18% 17%  8%  8%  8%  9%  7%  7%
[libx264 @ 0x7ab5becdde00] i4 v,h,dc,ddl,ddr,vr,hd,vl,hu: 25% 24% 10%  7%  6%  6% 10%  6%  7%
[libx264 @ 0x7ab5becdde00] i8c dc,h,v,p: 37% 23% 26% 14%
[libx264 @ 0x7ab5becdde00] Weighted P-Frames: Y:4.2% UV:3.1%
[libx264 @ 0x7ab5becdde00] kb/s:2693.95